<svg viewBox="0 0 70 35" fill="none" xmlns="http://www.w3.org/2000/svg">
<path d="M13.9434 34.1462C21.6445 34.1462 27.8872 31.0111 27.8872 27.1437C27.8872 23.2766 21.6445 20.1411 13.9434 20.1411C6.24316 20.1411 0 23.2766 0 27.1437C0 31.0111 6.24316 34.1462 13.9434 34.1462Z" fill="#515560"/>
<path fill-rule="evenodd" clip-rule="evenodd" d="M0.987549 29.7372C3.04028 27.1541 8.06714 25.3286 13.9434 25.3286C19.8201 25.3286 24.8477 27.1541 26.8997 29.7372C27.5369 28.9352 27.8872 28.0602 27.8872 27.1437C27.8872 23.2766 21.6445 20.1411 13.9434 20.1411C6.24316 20.1411 0 23.2766 0 27.1437C0 28.0602 0.351074 28.9352 0.987549 29.7372Z" fill="#F2F2F5"/>
<path d="M70 11.3157C70 10.9031 69.7207 10.5673 69.3772 10.5673L61.8977 10.5537L61.8843 29.5448L69.3623 29.5516C69.6973 29.5516 69.9829 29.2101 69.9829 28.8038L70 11.3157Z" fill="#C8C8CA"/>
<path d="M33.7219 14.7466C32.6682 20.4916 33.428 26.4241 35.6572 29.8609C40.1677 36.8036 48.7463 33.8077 56.3147 31.1644L56.324 31.1614C57.8425 30.6308 59.2846 30.1274 60.6687 29.7096L60.6843 10.0303C60.2068 9.09593 59.7998 8.17613 59.405 7.28575L59.4018 7.27879C58.3916 4.99815 57.5195 3.02854 55.9194 1.79551C52.8484 -0.568868 45.6164 -1.29128 43.4133 4.00584C46.3476 4.39659 49.4775 5.63267 51.841 7.76853C52.1079 8.01072 52.1618 8.46714 51.9607 8.78904C51.9438 8.81687 51.925 8.84251 51.9045 8.86656C51.6943 9.11888 51.3574 9.15391 51.113 8.93309C47.0715 5.27928 40.5613 4.56236 38.0862 6.05699C38.0429 6.11021 35.0232 7.64964 33.7219 14.7466Z" fill="#E44B44"/>
</svg>
